<svg width="17" height="16" viewBox="0 0 17 16" fill="none" xmlns="http://www.w3.org/2000/svg">
<g clip-path="url(#clip0_136_152)">
<path d="M5.31667 0H4.78333H0.25V4.53333V5.06667V16H4.51667V5.06667H5.31667V4.26667H16.25V0H5.31667ZM3.98333 6.13333H3.18333C3.03587 6.13333 2.91667 6.25253 2.91667 6.4C2.91667 6.54747 3.03587 6.66667 3.18333 6.66667H3.98333V7.73333H2.38333C2.23587 7.73333 2.11667 7.85253 2.11667 8C2.11667 8.14747 2.23587 8.26667 2.38333 8.26667H3.98333V9.33333H3.18333C3.03587 9.33333 2.91667 9.45253 2.91667 9.6C2.91667 9.74747 3.03587 9.86667 3.18333 9.86667H3.98333V10.9333H2.38333C2.23587 10.9333 2.11667 11.0525 2.11667 11.2C2.11667 11.3475 2.23587 11.4667 2.38333 11.4667H3.98333V12.5333H3.18333C3.03587 12.5333 2.91667 12.6525 2.91667 12.8C2.91667 12.9475 3.03587 13.0667 3.18333 13.0667H3.98333V14.1333H2.38333C2.23587 14.1333 2.11667 14.2525 2.11667 14.4C2.11667 14.5475 2.23587 14.6667 2.38333 14.6667H3.98333V15.4667H0.783333V5.06667H3.98333V6.13333ZM4.78333 4.53333H4.51667H0.783333V0.533333H4.78333V4.26667V4.53333ZM15.7167 3.73333H14.9167V2.13333C14.9167 1.98587 14.7975 1.86667 14.65 1.86667C14.5025 1.86667 14.3833 1.98587 14.3833 2.13333V3.73333H13.3167V2.93333C13.3167 2.78587 13.1975 2.66667 13.05 2.66667C12.9025 2.66667 12.7833 2.78587 12.7833 2.93333V3.73333H11.7167V2.13333C11.7167 1.98587 11.5975 1.86667 11.45 1.86667C11.3025 1.86667 11.1833 1.98587 11.1833 2.13333V3.73333H10.1167V2.93333C10.1167 2.78587 9.99747 2.66667 9.85 2.66667C9.70253 2.66667 9.58333 2.78587 9.58333 2.93333V3.73333H8.51667V2.13333C8.51667 1.98587 8.39747 1.86667 8.25 1.86667C8.10253 1.86667 7.98333 1.98587 7.98333 2.13333V3.73333H6.91667V2.93333C6.91667 2.78587 6.79747 2.66667 6.65 2.66667C6.50253 2.66667 6.38333 2.78587 6.38333 2.93333V3.73333H5.31667V0.533333H15.7167V3.73333Z" fill="#D1A217"/>
</g>
<defs>
<clipPath id="clip0_136_152">
<rect width="16" height="16" fill="white" transform="translate(0.25)"/>
</clipPath>
</defs>
</svg>
