<svg width="24" height="25" viewBox="0 0 24 25" fill="none" xmlns="http://www.w3.org/2000/svg">
<path fill-rule="evenodd" clip-rule="evenodd" d="M12 18.4895C15.3137 18.4895 18 15.8032 18 12.4895C18 9.17579 15.3137 6.4895 12 6.4895C8.68629 6.4895 6 9.17579 6 12.4895C6 15.8032 8.68629 18.4895 12 18.4895ZM12 16.4895C14.2091 16.4895 16 14.6986 16 12.4895C16 10.2804 14.2091 8.4895 12 8.4895C9.79086 8.4895 8 10.2804 8 12.4895C8 14.6986 9.79086 16.4895 12 16.4895Z" fill="#D1A217"/>
<path d="M18 5.4895C17.4477 5.4895 17 5.93722 17 6.4895C17 7.04178 17.4477 7.4895 18 7.4895C18.5523 7.4895 19 7.04178 19 6.4895C19 5.93722 18.5523 5.4895 18 5.4895Z" fill="#D1A217"/>
<path fill-rule="evenodd" clip-rule="evenodd" d="M1.65396 4.76556C1 6.04903 1 7.72919 1 11.0895V13.8895C1 17.2498 1 18.93 1.65396 20.2134C2.2292 21.3424 3.14708 22.2603 4.27606 22.8355C5.55953 23.4895 7.23969 23.4895 10.6 23.4895H13.4C16.7603 23.4895 18.4405 23.4895 19.7239 22.8355C20.8529 22.2603 21.7708 21.3424 22.346 20.2134C23 18.93 23 17.2498 23 13.8895V11.0895C23 7.72919 23 6.04903 22.346 4.76556C21.7708 3.63658 20.8529 2.7187 19.7239 2.14346C18.4405 1.4895 16.7603 1.4895 13.4 1.4895H10.6C7.23969 1.4895 5.55953 1.4895 4.27606 2.14346C3.14708 2.7187 2.2292 3.63658 1.65396 4.76556ZM13.4 3.4895H10.6C8.88684 3.4895 7.72225 3.49106 6.82208 3.5646C5.94524 3.63624 5.49684 3.76609 5.18404 3.92547C4.43139 4.30897 3.81947 4.92089 3.43597 5.67354C3.27659 5.98634 3.14674 6.43474 3.0751 7.31158C3.00156 8.21175 3 9.37634 3 11.0895V13.8895C3 15.6027 3.00156 16.7672 3.0751 17.6674C3.14674 18.5443 3.27659 18.9927 3.43597 19.3055C3.81947 20.0581 4.43139 20.67 5.18404 21.0535C5.49684 21.2129 5.94524 21.3428 6.82208 21.4144C7.72225 21.4879 8.88684 21.4895 10.6 21.4895H13.4C15.1132 21.4895 16.2777 21.4879 17.1779 21.4144C18.0548 21.3428 18.5032 21.2129 18.816 21.0535C19.5686 20.67 20.1805 20.0581 20.564 19.3055C20.7234 18.9927 20.8533 18.5443 20.9249 17.6674C20.9984 16.7672 21 15.6027 21 13.8895V11.0895C21 9.37634 20.9984 8.21175 20.9249 7.31158C20.8533 6.43474 20.7234 5.98634 20.564 5.67354C20.1805 4.92089 19.5686 4.30897 18.816 3.92547C18.5032 3.76609 18.0548 3.63624 17.1779 3.5646C16.2777 3.49106 15.1132 3.4895 13.4 3.4895Z" fill="#D1A217"/>
</svg>
