<svg width="21" height="20" viewBox="0 0 21 20" fill="none" xmlns="http://www.w3.org/2000/svg">
<g clip-path="url(#clip0_136_145)">
<path d="M20.25 2.37289C20.25 1.06227 19.1877 0 17.8771 0C16.5665 0 15.5042 1.06227 15.5042 2.37289H14.1483H7.70762H5.33473H0.588984C0.401758 2.37289 0.25 2.52465 0.25 2.71188V10.8475V12.8814V16.9492V19.6611C0.25 19.8482 0.401758 20 0.588984 20H5.67371H13.8093H17.8974C19.1965 20 20.25 18.9465 20.25 17.6475C20.25 17.643 20.2497 17.6386 20.2497 17.6341C20.2497 17.6318 20.25 17.6295 20.25 17.6271V2.37289ZM16.1822 2.37289C16.1822 1.43672 16.9409 0.677969 17.8771 0.677969C18.8133 0.677969 19.572 1.43672 19.572 2.37289V15.9664C19.3275 15.7169 19.0283 15.5214 18.6939 15.3988C18.6899 15.3973 18.6859 15.3961 18.6819 15.3946C18.6497 15.383 18.6173 15.3718 18.5845 15.3616C18.5753 15.3587 18.5659 15.3564 18.5567 15.3536C18.5287 15.3453 18.5008 15.337 18.4724 15.3296C18.4584 15.326 18.4442 15.3231 18.4302 15.3197C18.4061 15.314 18.382 15.308 18.3577 15.303C18.3399 15.2993 18.3219 15.2965 18.304 15.2933C18.2829 15.2895 18.2619 15.2852 18.2405 15.2819C18.2191 15.2786 18.1975 15.2763 18.1759 15.2736C18.1577 15.2713 18.1396 15.2685 18.1213 15.2666C18.0955 15.264 18.0693 15.2624 18.0432 15.2606C18.0288 15.2596 18.0146 15.2581 18.0001 15.2573C17.9594 15.2553 17.9184 15.2542 17.8772 15.2542C17.2132 15.2542 16.6129 15.5268 16.1823 15.9663V2.71188V2.37289H16.1822ZM0.927969 13.2204H4.30266C4.14176 15.0108 2.7184 16.4341 0.927969 16.595V13.2204ZM17.8975 19.322H14.1483V15.5932C14.1483 15.406 13.9966 15.2542 13.8093 15.2542H11.4364V14.9152C11.4364 14.728 11.2847 14.5763 11.0975 14.5763C10.9102 14.5763 10.7585 14.728 10.7585 14.9152V16.2712C10.7585 16.4584 10.9102 16.6102 11.0975 16.6102C11.2847 16.6102 11.4364 16.4584 11.4364 16.2712V15.9322H13.4704V19.322H6.0127V15.9322H8.0466V16.2712C8.0466 16.4584 8.19836 16.6102 8.38559 16.6102C8.57281 16.6102 8.72457 16.4584 8.72457 16.2712V14.9152C8.72457 14.728 8.57281 14.5763 8.38559 14.5763C8.19836 14.5763 8.0466 14.728 8.0466 14.9152V15.2542H5.67371C5.48648 15.2542 5.33473 15.406 5.33473 15.5932V19.322H0.927969V17.2753C3.20496 17.1025 4.99578 15.203 4.99578 12.8814C4.99578 12.6941 4.84402 12.5424 4.6568 12.5424H0.927969V11.1864H5.33477C5.52199 11.1864 5.67375 11.0347 5.67375 10.8475V8.47457H6.01273C6.19996 8.47457 6.35172 8.32281 6.35172 8.13559C6.35172 7.94836 6.19996 7.7966 6.01273 7.7966H4.6568C4.46957 7.7966 4.31781 7.94836 4.31781 8.13559C4.31781 8.32281 4.46957 8.47457 4.6568 8.47457H4.99578V10.5085H0.927969V3.05086H4.99578V5.08477H4.6568C4.46957 5.08477 4.31781 5.23652 4.31781 5.42375C4.31781 5.61098 4.46957 5.76273 4.6568 5.76273H6.01273C6.19996 5.76273 6.35172 5.61098 6.35172 5.42375C6.35172 5.23652 6.19996 5.08477 6.01273 5.08477H5.67375V3.05086H7.36867V6.77969C7.36867 6.96691 7.52043 7.11867 7.70766 7.11867H9.06359V7.4573C9.06359 7.64453 9.21535 7.79629 9.40258 7.79629C9.5898 7.79629 9.74156 7.64453 9.74156 7.4573V6.10172C9.74156 5.91449 9.5898 5.76273 9.40258 5.76273C9.21535 5.76273 9.06359 5.91449 9.06359 6.10172V6.4407H8.04664V3.05086H13.8093V6.4407H12.4534V6.10172C12.4534 5.91449 12.3016 5.76273 12.1144 5.76273C11.9272 5.76273 11.7754 5.91449 11.7754 6.10172V7.4573C11.7754 7.64453 11.9272 7.79629 12.1144 7.79629C12.3016 7.79629 12.4534 7.64453 12.4534 7.4573V7.11867H14.1483C14.3355 7.11867 14.4873 6.96691 14.4873 6.77969V3.05086H15.5043V17.6271C15.5043 18.0791 16.1822 18.0791 16.1822 17.6271C16.1822 16.691 16.941 15.9322 17.8771 15.9322C18.8133 15.9322 19.5721 16.691 19.5721 17.6271C19.572 18.5721 18.8221 19.322 17.8975 19.322Z" fill="#D1A217"/>
</g>
<defs>
<clipPath id="clip0_136_145">
<rect width="20" height="20" fill="white" transform="translate(0.25)"/>
</clipPath>
</defs>
</svg>
