<svg width="21" height="20" viewBox="0 0 21 20" fill="none" xmlns="http://www.w3.org/2000/svg">
<g clip-path="url(#clip0_136_139)">
<path d="M15.7262 6.04378L15.7168 6.03127C15.6683 5.9609 15.5713 5.94526 15.5025 5.99374L14.3141 6.82564C14.2437 6.87411 14.2281 6.97106 14.2766 7.03987L14.286 7.05238C14.3344 7.12275 14.4314 7.13838 14.5002 7.08991L15.6886 6.25801C15.7574 6.20953 15.7746 6.11258 15.7262 6.04378ZM18.8599 10.7349L18.2156 13.7404C18.0561 14.4879 17.6949 15.0586 17.182 15.4496C16.827 15.7201 16.4032 15.8999 15.9263 15.989L16.3485 16.8929C16.4392 17.0883 16.3548 17.3213 16.1593 17.412C15.9638 17.5027 15.7308 17.4183 15.6401 17.2228L15.0928 16.0532H5.73866L5.19136 17.2228C5.10066 17.4183 4.86767 17.5027 4.6722 17.412C4.47674 17.3213 4.3923 17.0883 4.48299 16.8929L4.88174 16.0391C4.27189 15.9859 3.7715 15.7905 3.36806 15.4558C2.89738 15.0649 2.57525 14.4973 2.38292 13.7576L1.59011 10.7349H0.970876C0.773847 10.7349 0.594019 10.6536 0.462666 10.5238V10.5223L0.461102 10.5238C0.331314 10.3925 0.25 10.2127 0.25 10.0141V9.35887C0.25 9.16027 0.331314 8.98045 0.461102 8.84909C0.470485 8.83971 0.481431 8.82877 0.492377 8.82095C0.619038 8.7068 0.786357 8.63799 0.969312 8.63799H1.0647C1.09128 8.35339 1.20074 8.08443 1.36962 7.84988C1.54163 7.60906 1.77932 7.40422 2.04984 7.26348C2.32193 7.12118 2.62998 7.04143 2.94116 7.05081C3.21482 7.0602 3.4869 7.13525 3.73866 7.29475C3.84812 7.13525 3.98417 6.99296 4.14054 6.87568C4.44703 6.64581 4.83014 6.5082 5.24453 6.5082C5.58855 6.5082 5.91067 6.60203 6.18432 6.76465C6.39855 6.89131 6.58307 7.06176 6.72693 7.26192C7.16321 7.29632 7.55727 7.4824 7.85281 7.767C8.09519 8.00156 8.27033 8.30179 8.34695 8.63643H18.863V4.7584C18.6347 3.63721 17.9873 3.33228 17.1226 3.45582C17.5119 4.13447 17.4619 4.82407 16.9099 5.52775C16.9803 5.6419 16.974 5.767 16.8974 5.89991L16.7254 6.09851C16.6566 6.16888 16.5706 6.17513 16.4595 6.086L13.8168 3.41673C13.7449 3.33072 13.759 3.25566 13.8434 3.18999C14.0311 2.96012 14.0545 2.92103 14.3876 2.97732C15.1288 2.49569 15.8341 2.40969 16.4986 2.79124C18.1671 2.10633 19.587 2.96637 19.7793 4.71774V8.68334C19.8778 8.71931 19.9654 8.77716 20.0373 8.84909C20.1671 8.97888 20.2484 9.16027 20.2484 9.35887V10.0141C20.2484 10.2127 20.1671 10.3925 20.0373 10.5238C19.9075 10.6536 19.7262 10.7349 19.5291 10.7349H18.8599ZM14.2297 4.7584L14.2203 4.74589C14.1718 4.67552 14.0749 4.65988 14.0061 4.70836L12.8176 5.54026C12.7473 5.58873 12.7316 5.68569 12.7801 5.75449L12.7895 5.767C12.838 5.83737 12.9349 5.853 13.0037 5.80453L14.1921 4.97263C14.2625 4.92415 14.2781 4.8272 14.2297 4.7584ZM13.5463 4.07036L13.5369 4.05785C13.4885 3.98748 13.3915 3.97185 13.3227 4.02032L12.1343 4.85222C12.0639 4.9007 12.0483 4.99765 12.0968 5.06645L12.1061 5.07896C12.1546 5.14933 12.2516 5.16497 12.3204 5.11649L13.5088 4.28459C13.5776 4.23612 13.5948 4.13916 13.5463 4.07036ZM14.9115 5.42298L14.9021 5.41047C14.8536 5.3401 14.7566 5.32447 14.6878 5.37294L13.4994 6.20484C13.429 6.25332 13.4134 6.35027 13.4619 6.41907L13.4713 6.43158C13.5197 6.50195 13.6167 6.51759 13.6855 6.46911L14.8755 5.63721C14.9427 5.58873 14.9599 5.49335 14.9115 5.42298ZM1.85907 8.63799H7.52756C7.47752 8.52228 7.40403 8.41907 7.31333 8.33307C7.12725 8.15324 6.86923 8.04221 6.58307 8.04221C6.53929 8.04221 6.5862 8.04065 6.55649 8.04065L6.52991 8.04221C6.38292 8.04847 6.23749 7.97185 6.16556 7.83267C6.08112 7.67161 5.94976 7.53557 5.7887 7.44018C5.63233 7.34792 5.44625 7.29319 5.24765 7.29319C5.00684 7.29319 4.78636 7.37138 4.61278 7.50117C4.43921 7.63252 4.30942 7.81547 4.25313 8.02501C4.23436 8.10476 4.18901 8.17982 4.12021 8.23611C3.95289 8.37216 3.70582 8.34714 3.56978 8.17982C3.37744 7.9437 3.14601 7.84049 2.91927 7.83267C2.74726 7.82642 2.57213 7.87333 2.41419 7.95621C2.25469 8.04065 2.11396 8.16262 2.00919 8.30648C1.93569 8.40969 1.88253 8.52228 1.85907 8.63799ZM1.57916 9.42298C1.51661 9.43862 1.45407 9.43705 1.39464 9.42298H1.03499V9.94839H19.465V9.42298H1.57916ZM2.39855 10.7349L3.13976 13.5606C3.28987 14.136 3.52756 14.5692 3.86845 14.8507C4.20152 15.1274 4.65031 15.2682 5.23358 15.2682H15.2023C15.8059 15.2682 16.3204 15.1196 16.705 14.8272C17.071 14.5489 17.329 14.1313 17.4478 13.5778L18.0577 10.7349H2.39855Z" fill="#D1A217"/>
</g>
<defs>
<clipPath id="clip0_136_139">
<rect width="20" height="20" fill="white" transform="translate(0.25)"/>
</clipPath>
</defs>
</svg>
